<svg width="80" height="52" viewBox="0 0 80 52" fill="none" xmlns="http://www.w3.org/2000/svg">
<path d="M17.4783 42.0367L22.8637 29.9387L27.3354 35.6559L17.4783 42.0367Z" fill="#1C5B98"/>
<path d="M24.201 28.3818L41.0464 51.5212L49.0249 41.2659L55.661 32.4706L57.8509 11.0873L24.201 28.3818Z" fill="#1C5B98"/>
<path d="M58.6831 2.48086L58.2542 6.63604L76.3349 1.53139L57.7999 11.0771L55.61 32.4655L80 0L58.6831 2.48086Z" fill="#F39019"/>
<path d="M32.1593 5.56392L0 9.30563L9.04034 16.932L12.195 19.5915L58.2542 6.63589L58.683 2.48071L32.1593 5.56392Z" fill="#1C5B98"/>
<path d="M14.2164 22.2001L17.1618 39.9592L21.511 26.0592L57.999 9.41811L58.1572 7.88672L14.2164 22.2001Z" fill="#1C5B98"/>
<path d="M58.1266 7.88671L57.9684 9.4181L69.2752 4.2522L58.1266 7.88671Z" fill="#F39019"/>
</svg>
