<svg width="154" height="58" viewBox="0 0 154 58" fill="none" xmlns="http://www.w3.org/2000/svg">
<mask id="mask0_6_28" style="mask-type:luminance" maskUnits="userSpaceOnUse" x="0" y="0" width="154" height="58">
<path d="M153.072 0H0V57.9975H153.072V0Z" fill="white"/>
</mask>
<g mask="url(#mask0_6_28)">
<path d="M72.353 20.6891L75.0035 14.7349L77.2044 17.5487L72.353 20.6891Z" fill="#1C5B98"/>
<path d="M75.6617 13.9686L83.9525 25.3571L87.8793 20.3098L91.1453 15.981L92.2231 5.45679L75.6617 13.9686Z" fill="#1C5B98"/>
<path d="M92.6327 1.221L92.4216 3.26605L101.32 0.753703L92.198 5.45179L91.1202 15.9785L103.124 0L92.6327 1.221Z" fill="#F39019"/>
<path d="M79.5785 2.73841L63.7507 4.57996L68.2001 8.3334L69.7527 9.64233L92.4216 3.266L92.6327 1.22095L79.5785 2.73841Z" fill="#1C5B98"/>
<path d="M70.7476 10.9262L72.1972 19.6667L74.3378 12.8255L92.296 4.6353L92.3739 3.88159L70.7476 10.9262Z" fill="#1C5B98"/>
<path d="M92.3588 3.88157L92.2809 4.63527L97.8458 2.09277L92.3588 3.88157Z" fill="#F39019"/>
<path d="M22.0634 54.6687C22.0803 55.1166 22.0006 55.5629 21.8298 55.9773C21.659 56.3917 21.4011 56.7645 21.0735 57.0705C20.3949 57.691 19.5003 58.021 18.5813 57.99C17.7877 57.9954 17.0128 57.7491 16.3679 57.2865C16.0562 57.0792 15.7974 56.8016 15.6124 56.4761C15.4274 56.1506 15.3213 55.7862 15.3027 55.4123L15.1846 52.6764H8.57965C7.94654 53.7182 7.39968 54.5782 6.93909 55.2565C6.56264 55.8282 6.14267 56.3699 5.68292 56.877C5.36483 57.2313 4.98303 57.5228 4.55738 57.7362C4.18485 57.9045 3.78032 57.9902 3.37155 57.9875C2.92855 58.0026 2.48699 57.9291 2.07281 57.7712C1.65862 57.6133 1.28018 57.3742 0.959709 57.0679C0.642501 56.7561 0.394118 56.3813 0.230556 55.9676C0.0669932 55.5539 -0.0081234 55.1106 0.0100431 54.6661C0.0246454 54.3176 0.11013 53.9756 0.261278 53.6612C0.376654 53.3764 0.515301 53.1017 0.675813 52.8397L15.4183 30.6079C15.8566 29.9401 16.4462 29.3849 17.1392 28.9875C17.8253 28.5873 18.6061 28.3783 19.4003 28.382C19.7557 28.3725 20.1091 28.4391 20.4366 28.5774C20.7642 28.7156 21.0585 28.9222 21.2997 29.1834C21.8095 29.7418 22.0801 30.4778 22.0534 31.2335L22.0634 54.6687ZM11.901 46.2774H15.0741V41.504L11.901 46.2774Z" fill="#F39019"/>
<path d="M61.3263 46.2774H64.4994V41.5039L61.3263 46.2774ZM71.5139 54.6686C71.5308 55.1169 71.4512 55.5636 71.2804 55.9784C71.1096 56.3932 70.8517 56.7665 70.5241 57.0729C69.8457 57.6919 68.9521 58.021 68.0343 57.9899C67.2407 57.9981 66.4652 57.7525 65.8209 57.289C65.5089 57.0814 65.2499 56.8034 65.0649 56.4774C64.8799 56.1515 64.774 55.7866 64.7557 55.4122L64.6351 52.6763H58.0301C57.4004 53.7181 56.8535 54.5781 56.3896 55.2565C56.0132 55.8281 55.5932 56.3699 55.1334 56.8769C54.8148 57.2307 54.4331 57.5221 54.0079 57.7362C53.6359 57.9033 53.2324 57.9889 52.8246 57.9874C52.3812 58.0026 51.9392 57.9291 51.5246 57.7712C51.11 57.6133 50.7311 57.3742 50.4102 57.0679C50.093 56.756 49.8446 56.3812 49.6811 55.9675C49.5175 55.5539 49.4424 55.1105 49.4605 54.6661C49.4763 54.3177 49.5617 53.976 49.7118 53.6611C49.8272 53.3764 49.9658 53.1016 50.1263 52.8396L64.8713 30.6079C65.3095 29.9407 65.898 29.3857 66.5897 28.9874C67.2796 28.5854 68.0649 28.3763 68.8634 28.3819C69.2185 28.3722 69.5715 28.4386 69.8987 28.5769C70.2259 28.7151 70.5197 28.9219 70.7602 29.1834C71.2722 29.7405 71.5431 30.4774 71.5139 31.2334V54.6686Z" fill="#1C5B98"/>
<path d="M92.708 46.5487V54.5204C92.7142 54.9766 92.6287 55.4294 92.4568 55.852C92.1855 56.4925 91.7305 57.0381 91.1491 57.42C90.5678 57.8019 89.8863 58.0029 89.1907 57.9975C88.7329 58.0001 88.2804 57.8997 87.8667 57.7036C87.465 57.5136 87.1034 57.2484 86.8015 56.9222C86.4976 56.5947 86.2626 56.2093 86.1106 55.7892C85.9484 55.3716 85.8633 54.9281 85.8594 54.4802V31.9746C85.8441 31.524 85.9184 31.0747 86.078 30.653C86.2376 30.2312 86.4792 29.8453 86.7889 29.5176C87.0968 29.196 87.4688 28.9428 87.8808 28.7745C88.2929 28.6061 88.7358 28.5263 89.1807 28.5403H95.2279C96.4636 28.5241 97.6894 28.7636 98.8281 29.2437C99.8919 29.6898 100.854 30.348 101.654 31.1782C102.45 32.0048 103.075 32.9796 103.494 34.0473C103.935 35.1809 104.157 36.3883 104.147 37.6048C104.147 39.5326 103.771 41.1405 103.019 42.4285C102.226 43.757 101.101 44.8553 99.7526 45.6142L103.35 53.1939C103.585 53.6536 103.706 54.1626 103.705 54.6787C103.706 55.1011 103.62 55.5192 103.453 55.9072C103.283 56.3104 103.034 56.6758 102.722 56.9825C102.399 57.305 102.016 57.561 101.594 57.7362C101.149 57.9197 100.671 58.0128 100.19 58.0101C99.5598 58.0014 98.9439 57.822 98.4077 57.4911C97.8715 57.1602 97.435 56.6901 97.1448 56.1308L92.708 46.5487ZM92.708 35.296V40.097H95.238C95.5883 40.1106 95.9342 40.0149 96.2278 39.8232C96.4792 39.6527 96.6944 39.4341 96.8609 39.18C97.0167 38.9337 97.1297 38.6627 97.1951 38.3786C97.2574 38.1227 97.2911 37.8606 97.2956 37.5973C97.291 37.3595 97.2573 37.1233 97.1951 36.8938C97.1271 36.6294 97.014 36.3787 96.8609 36.1527C96.6939 35.9094 96.4783 35.7032 96.2278 35.5472C95.9294 35.3688 95.5854 35.2814 95.238 35.296H92.708Z" fill="#1C5B98"/>
<path d="M49.5209 37.5243C48.0051 34.0031 45.1865 31.2044 41.6547 29.7135C41.1177 29.48 40.5664 29.2812 40.0041 29.118C38.6583 28.7302 37.2643 28.5357 35.8637 28.5402H29.6959C29.1973 28.5261 28.7008 28.6122 28.2361 28.7935C27.7713 28.9747 27.3476 29.2474 26.9901 29.5954C26.6305 29.9437 26.3479 30.3636 26.1605 30.8279C25.9731 31.2923 25.8852 31.7907 25.9023 32.2911V54.2842C25.9023 54.7501 26.0035 55.2104 26.1988 55.6333C26.5886 56.4869 27.2777 57.168 28.1358 57.5477C28.5642 57.742 29.0296 57.8414 29.5 57.8392H35.8637C36.5214 57.8409 37.1786 57.7997 37.8309 57.7161C39.1488 57.5517 40.4369 57.2024 41.6572 56.6785C45.194 55.1843 48.0131 52.376 49.5209 48.845C50.3003 47.0514 50.6974 45.1151 50.6866 43.1595C50.6978 41.2201 50.3006 39.3001 49.5209 37.5243ZM43.2576 46.3527C42.8833 47.2958 42.3179 48.1512 41.5969 48.8651C40.8738 49.5781 40.013 50.1363 39.067 50.5056C38.8359 50.5986 38.5997 50.679 38.3585 50.7569C37.5476 50.9897 36.7074 51.1047 35.8637 51.0985H32.7384V35.2959H36.0622C37.1514 35.2828 38.2327 35.4825 39.2454 35.8838L39.4815 35.9868C40.314 36.3448 41.0716 36.8561 41.715 37.4942C42.4115 38.2 42.9508 39.045 43.2978 39.9739C43.6758 40.986 43.864 42.0591 43.853 43.1394C43.8663 44.2391 43.664 45.3308 43.2576 46.3527Z" fill="#F39019"/>
<path d="M81.1738 29.3392C80.5695 28.7442 79.7606 28.4026 78.9127 28.3845H78.7293C78.2836 28.3768 77.8408 28.4574 77.4264 28.6217C77.0121 28.786 76.6343 29.0307 76.315 29.3417C75.9903 29.6427 75.7329 30.0089 75.5597 30.4164C75.3865 30.8238 75.3014 31.2632 75.31 31.7059V54.6687C75.3016 55.1113 75.3868 55.5507 75.5599 55.9581C75.7331 56.3655 75.9904 56.7317 76.315 57.0328C76.6343 57.3438 77.0121 57.5885 77.4264 57.7528C77.8408 57.9171 78.2836 57.9977 78.7293 57.99C78.7896 57.99 78.8474 57.99 78.9077 57.99C79.7553 57.9728 80.5643 57.6322 81.1688 57.0378C81.4875 56.7334 81.7395 56.3661 81.9086 55.9591C82.0777 55.5521 82.1603 55.1143 82.1512 54.6737V31.7033C82.1619 31.263 82.0805 30.8252 81.9122 30.4181C81.7439 30.011 81.4924 29.6435 81.1738 29.3392Z" fill="#1C5B98"/>
<path d="M121.173 46.4708C121.617 46.4708 122.056 46.3834 122.466 46.2136C122.876 46.0438 123.249 45.7949 123.562 45.4811C123.876 45.1673 124.125 44.7948 124.295 44.3848C124.465 43.9749 124.552 43.5355 124.552 43.0917C124.552 42.648 124.465 42.2086 124.295 41.7986C124.125 41.3886 123.876 41.0161 123.562 40.7023C123.249 40.3886 122.876 40.1397 122.466 39.9698C122.056 39.8 121.617 39.7126 121.173 39.7126H114.452V35.2959H121.173C121.626 35.3062 122.076 35.2222 122.495 35.0492C122.913 34.8762 123.291 34.618 123.605 34.291C123.919 33.9756 124.167 33.6002 124.333 33.1871C124.499 32.7741 124.58 32.3318 124.572 31.8867C124.576 31.4418 124.49 31.0007 124.319 30.5896C124.149 30.1786 123.898 29.8059 123.581 29.4938C123.264 29.1817 122.887 28.9364 122.474 28.7726C122.06 28.6088 121.618 28.5298 121.173 28.5402H111.016C110.568 28.5319 110.123 28.6142 109.708 28.7821C109.294 28.9501 108.917 29.2002 108.601 29.5175C108.277 29.8301 108.021 30.207 107.851 30.6241C107.681 31.0412 107.6 31.4892 107.614 31.9394V54.4425C107.608 54.8889 107.694 55.3316 107.865 55.7439C108.039 56.1587 108.295 56.5339 108.619 56.8468C109.017 57.2588 109.517 57.5579 110.068 57.7136C110.382 57.8007 110.705 57.8447 111.031 57.8442H121.188C121.634 57.854 122.077 57.774 122.492 57.6091C122.906 57.4441 123.283 57.1974 123.6 56.8838C123.917 56.5702 124.168 56.196 124.338 55.7836C124.507 55.3711 124.592 54.9287 124.587 54.4827C124.591 54.0381 124.506 53.5973 124.336 53.1863C124.171 52.7722 123.923 52.3961 123.607 52.0809C123.373 51.8351 123.101 51.6281 122.801 51.4679C122.3 51.2072 121.742 51.0751 121.178 51.0835H114.45V46.4708H121.173Z" fill="#1C5B98"/>
<path d="M151.906 37.5244C151.869 37.434 151.829 37.346 151.786 37.2556C150.243 33.859 147.478 31.1681 144.04 29.7185C142.212 28.9301 140.24 28.5289 138.249 28.5403H132.081C131.582 28.5264 131.086 28.6126 130.621 28.7939C130.155 28.9751 129.731 29.2476 129.373 29.5954C129.014 29.9443 128.732 30.3644 128.546 30.8286C128.359 31.2928 128.271 31.791 128.288 32.2912V54.2843C128.288 54.7501 128.389 55.2104 128.584 55.6334C128.974 56.4869 129.663 57.168 130.521 57.5478C130.95 57.742 131.415 57.8415 131.886 57.8392H138.249C140.242 57.8564 142.217 57.4612 144.05 56.6785C147.587 55.1827 150.406 52.3751 151.916 48.845C152.697 47.0517 153.095 45.1153 153.085 43.1596C153.09 41.2195 152.689 39.2997 151.906 37.5244ZM145.643 46.3528C145.27 47.2963 144.704 48.1519 143.982 48.8651C143.26 49.5797 142.399 50.1389 141.453 50.5082C140.433 50.9078 139.346 51.1065 138.252 51.0936H135.126V35.296H138.445C139.534 35.2826 140.616 35.4823 141.628 35.8838C142.554 36.2497 143.394 36.8012 144.098 37.5043C144.795 38.2101 145.334 39.0551 145.681 39.984C145.708 40.0594 145.734 40.1347 145.759 40.2101C146.083 41.1558 146.244 42.1499 146.234 43.1495C146.25 44.2458 146.049 45.3343 145.643 46.3528Z" fill="#1C5B98"/>
</g>
</svg>
